<svg xmlns="http://www.w3.org/2000/svg" width="400" height="400" version="1.1"><rect id="backgroundrect" width="100%" height="100%" x="0" y="0" fill="none" stroke="none"/>




<g class="currentLayer"><title>Layer 1</title><path fill="#45bf55" d=" M 86.98 177.79 C 124.30 121.40 161.76 65.11 199.08 8.73 C 236.49 65.06 273.84 121.42 311.24 177.75 C 273.68 215.75 236.47 254.11 199.10 292.30 C 163.73 255.50 128.56 218.51 92.99 181.92 C 91.24 180.20 89.06 179.03 86.98 177.79 Z" id="svg_2"/><path fill="#45bf55" d=" M 62.21 237.54 C 104.23 259.31 146.22 281.14 188.22 302.94 C 191.24 330.35 194.18 357.77 197.22 385.18 C 193.01 384.18 188.98 382.62 184.87 381.31 C 128.99 362.74 73.08 344.27 17.21 325.66 C 32.25 296.31 47.22 266.92 62.21 237.54 Z" id="svg_3"/><path fill="#45bf55" d=" M 210.73 302.94 C 252.74 281.14 294.73 259.31 336.75 237.54 C 351.73 266.92 366.70 296.31 381.74 325.66 C 330.91 342.59 280.05 359.39 229.21 376.29 C 220.04 379.20 211.01 382.59 201.74 385.19 C 204.75 357.77 207.72 330.35 210.73 302.94 Z" id="svg_4"/></g></svg>